<svg width="272" height="99" viewBox="0 0 272 99" fill="none" xmlns="http://www.w3.org/2000/svg">
<path d="M48.75 54.372V72H1.716V67.086H2.496C3.484 67.086 4.29 66.904 4.914 66.54C5.538 66.176 5.85 65.422 5.85 64.278V24.342C5.85 23.198 5.538 22.444 4.914 22.08C4.29 21.716 3.484 21.534 2.496 21.534H1.716V16.62H46.878V32.298H40.794L39.858 25.668C39.754 24.784 39.39 24.108 38.766 23.64C38.194 23.12 37.414 22.782 36.426 22.626C35.438 22.418 34.294 22.314 32.994 22.314H26.13V66.306H32.604C34.112 66.306 35.36 66.254 36.348 66.15C37.388 66.046 38.246 65.864 38.922 65.604C39.598 65.344 40.092 65.006 40.404 64.59C40.768 64.174 41.002 63.628 41.106 62.952L42.51 54.372H48.75ZM24.024 41.19C26.156 41.034 28.184 40.878 30.108 40.722C32.032 40.514 33.878 40.306 35.646 40.098C37.466 39.89 39.234 39.682 40.95 39.474V47.82C39.234 47.56 37.466 47.326 35.646 47.118C33.878 46.91 32.032 46.728 30.108 46.572C28.184 46.364 26.156 46.208 24.024 46.104V41.19ZM76.4108 62.796L72.9788 61.236L84.9908 22.704C84.9908 22.444 84.8608 22.236 84.6008 22.08C84.3408 21.924 83.9768 21.794 83.5088 21.69C83.0408 21.586 82.4948 21.534 81.8708 21.534H80.9348V16.62H94.3508V21.534H94.0388C93.1028 21.534 92.4008 21.768 91.9328 22.236C91.4648 22.652 91.0228 23.536 90.6068 24.888L75.6308 72H58.7828L43.4168 23.718C43.1568 22.834 42.7668 22.262 42.2468 22.002C41.7268 21.69 41.0508 21.534 40.2188 21.534H39.8288V16.62H68.0648V21.534H66.8168C66.4008 21.534 65.9588 21.56 65.4908 21.612C65.0748 21.664 64.7108 21.742 64.3988 21.846C64.0868 21.95 63.9308 22.106 63.9308 22.314L76.4108 62.796ZM132.941 54.372V72H85.9073V67.086H86.6873C87.6753 67.086 88.4813 66.904 89.1053 66.54C89.7293 66.176 90.0413 65.422 90.0413 64.278V24.342C90.0413 23.198 89.7293 22.444 89.1053 22.08C88.4813 21.716 87.6753 21.534 86.6873 21.534H85.9073V16.62H131.069V32.298H124.985L124.049 25.668C123.945 24.784 123.581 24.108 122.957 23.64C122.385 23.12 121.605 22.782 120.617 22.626C119.629 22.418 118.485 22.314 117.185 22.314H110.321V66.306H116.795C118.303 66.306 119.551 66.254 120.539 66.15C121.579 66.046 122.437 65.864 123.113 65.604C123.789 65.344 124.283 65.006 124.595 64.59C124.959 64.174 125.193 63.628 125.297 62.952L126.701 54.372H132.941ZM108.215 41.19C110.347 41.034 112.375 40.878 114.299 40.722C116.223 40.514 118.069 40.306 119.837 40.098C121.657 39.89 123.425 39.682 125.141 39.474V47.82C123.425 47.56 121.657 47.326 119.837 47.118C118.069 46.91 116.223 46.728 114.299 46.572C112.375 46.364 110.347 46.208 108.215 46.104V41.19ZM125.565 72V67.086H126.345C127.021 67.086 127.593 66.982 128.061 66.774C128.581 66.566 128.971 66.228 129.231 65.76C129.543 65.292 129.699 64.72 129.699 64.044V24.186C129.699 23.458 129.543 22.912 129.231 22.548C128.971 22.184 128.581 21.924 128.061 21.768C127.593 21.612 127.021 21.534 126.345 21.534H125.565V16.62H153.723L171.273 54.06L169.089 56.322V22.626C169.089 22.418 168.881 22.236 168.465 22.08C168.101 21.924 167.607 21.794 166.983 21.69C166.411 21.586 165.787 21.534 165.111 21.534H164.175V16.62H179.463V21.534H178.683C178.059 21.534 177.487 21.612 176.967 21.768C176.447 21.924 176.031 22.184 175.719 22.548C175.459 22.912 175.329 23.458 175.329 24.186V72H158.715L133.209 19.74L135.939 20.286V65.994C135.939 66.15 136.121 66.332 136.485 66.54C136.901 66.696 137.395 66.826 137.967 66.93C138.591 67.034 139.241 67.086 139.917 67.086H140.853V72H125.565ZM186.297 22.392C185.309 22.392 184.399 22.444 183.567 22.548C182.787 22.6 182.085 22.756 181.461 23.016C180.889 23.276 180.421 23.614 180.057 24.03C179.693 24.446 179.485 25.018 179.433 25.746L178.497 33H172.335V16.62H216.717V24.186L186.843 71.454L183.333 66.228H202.053C204.029 66.228 205.615 66.15 206.811 65.994C208.059 65.786 208.969 65.448 209.541 64.98C210.113 64.512 210.451 63.81 210.555 62.874L211.803 53.67H217.965V72H170.697V64.122L199.557 18.102L202.287 22.392H186.297ZM239.939 72.78C235.571 72.78 231.567 72.13 227.927 70.83C224.339 69.478 221.219 67.554 218.567 65.058C215.967 62.562 213.939 59.572 212.483 56.088C211.079 52.552 210.377 48.626 210.377 44.31C210.377 39.994 211.079 36.094 212.483 32.61C213.939 29.126 215.967 26.136 218.567 23.64C221.219 21.144 224.339 19.22 227.927 17.868C231.567 16.516 235.571 15.84 239.939 15.84C244.307 15.84 248.285 16.516 251.873 17.868C255.513 19.22 258.633 21.144 261.233 23.64C263.885 26.136 265.913 29.126 267.317 32.61C268.773 36.094 269.501 39.994 269.501 44.31C269.501 48.626 268.773 52.552 267.317 56.088C265.913 59.572 263.885 62.562 261.233 65.058C258.633 67.554 255.513 69.478 251.873 70.83C248.285 72.13 244.307 72.78 239.939 72.78ZM239.939 66.696C241.395 66.696 242.643 66.28 243.683 65.448C244.723 64.564 245.581 63.212 246.257 61.392C246.985 59.572 247.531 57.258 247.895 54.45C248.259 51.59 248.441 48.21 248.441 44.31C248.441 40.514 248.259 37.212 247.895 34.404C247.531 31.596 246.985 29.256 246.257 27.384C245.581 25.512 244.723 24.134 243.683 23.25C242.643 22.366 241.395 21.924 239.939 21.924C238.535 21.924 237.287 22.366 236.195 23.25C235.155 24.134 234.271 25.512 233.543 27.384C232.867 29.256 232.347 31.596 231.983 34.404C231.619 37.212 231.437 40.514 231.437 44.31C231.437 48.21 231.619 51.59 231.983 54.45C232.347 57.258 232.867 59.572 233.543 61.392C234.271 63.212 235.155 64.564 236.195 65.448C237.287 66.28 238.535 66.696 239.939 66.696Z" fill="url(#paint0_linear_970_4)"/>
<path d="M3.52246 82.2031L6.49316 88.3115L9.46387 82.2031H11.9072L7.60059 90.2891V95H5.37695V90.2891L1.07031 82.2031H3.52246ZM27.2051 88.25V88.9531C27.2051 89.9199 27.0791 90.7871 26.8272 91.5547C26.5752 92.3223 26.2149 92.9756 25.7461 93.5146C25.2832 94.0537 24.7266 94.4668 24.0762 94.7539C23.4258 95.0352 22.7051 95.1758 21.9141 95.1758C21.1289 95.1758 20.4112 95.0352 19.7608 94.7539C19.1163 94.4668 18.5567 94.0537 18.0821 93.5146C17.6075 92.9756 17.2383 92.3223 16.9746 91.5547C16.7168 90.7871 16.5879 89.9199 16.5879 88.9531V88.25C16.5879 87.2832 16.7168 86.4189 16.9746 85.6572C17.2325 84.8896 17.5957 84.2363 18.0645 83.6973C18.5391 83.1523 19.0987 82.7393 19.7432 82.458C20.3936 82.1709 21.1114 82.0273 21.8965 82.0273C22.6875 82.0273 23.4082 82.1709 24.0586 82.458C24.709 82.7393 25.2686 83.1523 25.7373 83.6973C26.2061 84.2363 26.5664 84.8896 26.8184 85.6572C27.0762 86.4189 27.2051 87.2832 27.2051 88.25ZM24.9991 88.9531V88.2324C24.9991 87.5176 24.9288 86.8877 24.7881 86.3428C24.6534 85.792 24.4512 85.332 24.1817 84.9629C23.918 84.5879 23.5928 84.3066 23.2061 84.1191C22.8194 83.9258 22.3829 83.8291 21.8965 83.8291C21.4102 83.8291 20.9766 83.9258 20.5957 84.1191C20.2149 84.3066 19.8897 84.5879 19.6202 84.9629C19.3565 85.332 19.1543 85.792 19.0137 86.3428C18.8731 86.8877 18.8028 87.5176 18.8028 88.2324V88.9531C18.8028 89.668 18.8731 90.3008 19.0137 90.8516C19.1543 91.4023 19.3594 91.8682 19.6289 92.249C19.9043 92.624 20.2325 92.9082 20.6133 93.1016C20.9942 93.2891 21.4278 93.3828 21.9141 93.3828C22.4063 93.3828 22.8428 93.2891 23.2237 93.1016C23.6045 92.9082 23.9268 92.624 24.1905 92.249C24.4541 91.8682 24.6534 91.4023 24.7881 90.8516C24.9288 90.3008 24.9991 89.668 24.9991 88.9531ZM40.5518 82.2031H42.7491V90.7549C42.7491 91.7275 42.5382 92.542 42.1163 93.1982C41.6944 93.8545 41.1202 94.3496 40.3936 94.6836C39.6729 95.0117 38.8673 95.1758 37.9766 95.1758C37.0567 95.1758 36.2364 95.0117 35.5157 94.6836C34.795 94.3496 34.2266 93.8545 33.8106 93.1982C33.4005 92.542 33.1954 91.7275 33.1954 90.7549V82.2031H35.3927V90.7549C35.3927 91.3701 35.4981 91.877 35.7091 92.2754C35.92 92.668 36.2188 92.958 36.6055 93.1455C36.9923 93.333 37.4493 93.4268 37.9766 93.4268C38.504 93.4268 38.9581 93.333 39.3389 93.1455C39.7257 92.958 40.0245 92.668 40.2354 92.2754C40.4464 91.877 40.5518 91.3701 40.5518 90.7549V82.2031ZM49.1085 82.2031H53.6349C54.6075 82.2031 55.4366 82.3496 56.1222 82.6426C56.8077 82.9355 57.3321 83.3691 57.6954 83.9434C58.0646 84.5117 58.2491 85.2148 58.2491 86.0527C58.2491 86.6914 58.132 87.2539 57.8976 87.7402C57.6632 88.2266 57.3321 88.6367 56.9044 88.9707C56.4767 89.2988 55.9669 89.5537 55.3751 89.7354L54.7071 90.0605H50.6378L50.6202 88.3115H53.67C54.1974 88.3115 54.6368 88.2178 54.9884 88.0303C55.34 87.8428 55.6036 87.5879 55.7794 87.2656C55.9611 86.9375 56.0519 86.5684 56.0519 86.1582C56.0519 85.7129 55.964 85.3262 55.7882 84.998C55.6183 84.6641 55.3546 84.4092 54.9972 84.2334C54.6398 84.0518 54.1857 83.9609 53.6349 83.9609H51.3146V95H49.1085V82.2031ZM56.4122 95L53.4064 89.252L55.7179 89.2432L58.7677 94.8857V95H56.4122ZM81.2248 93.251V95H74.4309V93.251H81.2248ZM75.0549 82.2031V95H72.8488V82.2031H75.0549ZM80.3371 87.5469V89.2695H74.4309V87.5469H80.3371ZM81.1809 82.2031V83.9609H74.4309V82.2031H81.1809ZM91.3723 92.6621L94.7385 82.2031H97.1731L92.5852 95H90.9416L91.3723 92.6621ZM88.261 82.2031L91.6008 92.6621L92.0579 95H90.4055L85.8352 82.2031H88.261ZM110.942 93.251V95H104.148V93.251H110.942ZM104.772 82.2031V95H102.566V82.2031H104.772ZM110.054 87.5469V89.2695H104.148V87.5469H110.054ZM110.898 82.2031V83.9609H104.148V82.2031H110.898ZM126.855 82.2031V95H124.649L118.909 85.833V95H116.703V82.2031H118.909L124.666 91.3877V82.2031H126.855ZM138.444 82.2031V95H136.255V82.2031H138.444ZM142.46 82.2031V83.9609H132.274V82.2031H142.46ZM157.35 82.2031L160.321 88.3115L163.291 82.2031H165.735L161.428 90.2891V95H159.205V90.2891L154.898 82.2031H157.35ZM181.033 88.25V88.9531C181.033 89.9199 180.907 90.7871 180.655 91.5547C180.403 92.3223 180.042 92.9756 179.574 93.5146C179.111 94.0537 178.554 94.4668 177.904 94.7539C177.253 95.0352 176.533 95.1758 175.742 95.1758C174.957 95.1758 174.239 95.0352 173.588 94.7539C172.944 94.4668 172.384 94.0537 171.91 93.5146C171.435 92.9756 171.066 92.3223 170.802 91.5547C170.544 90.7871 170.416 89.9199 170.416 88.9531V88.25C170.416 87.2832 170.544 86.4189 170.802 85.6572C171.06 84.8896 171.423 84.2363 171.892 83.6973C172.367 83.1523 172.926 82.7393 173.571 82.458C174.221 82.1709 174.939 82.0273 175.724 82.0273C176.515 82.0273 177.236 82.1709 177.886 82.458C178.537 82.7393 179.096 83.1523 179.565 83.6973C180.034 84.2363 180.394 84.8896 180.646 85.6572C180.904 86.4189 181.033 87.2832 181.033 88.25ZM178.827 88.9531V88.2324C178.827 87.5176 178.756 86.8877 178.616 86.3428C178.481 85.792 178.279 85.332 178.009 84.9629C177.746 84.5879 177.42 84.3066 177.034 84.1191C176.647 83.9258 176.21 83.8291 175.724 83.8291C175.238 83.8291 174.804 83.9258 174.423 84.1191C174.042 84.3066 173.717 84.5879 173.448 84.9629C173.184 85.332 172.982 85.792 172.841 86.3428C172.701 86.8877 172.63 87.5176 172.63 88.2324V88.9531C172.63 89.668 172.701 90.3008 172.841 90.8516C172.982 91.4023 173.187 91.8682 173.457 92.249C173.732 92.624 174.06 92.9082 174.441 93.1016C174.822 93.2891 175.255 93.3828 175.742 93.3828C176.234 93.3828 176.67 93.2891 177.051 93.1016C177.432 92.9082 177.754 92.624 178.018 92.249C178.282 91.8682 178.481 91.4023 178.616 90.8516C178.756 90.3008 178.827 89.668 178.827 88.9531ZM194.379 82.2031H196.577V90.7549C196.577 91.7275 196.366 92.542 195.944 93.1982C195.522 93.8545 194.948 94.3496 194.221 94.6836C193.501 95.0117 192.695 95.1758 191.804 95.1758C190.884 95.1758 190.064 95.0117 189.343 94.6836C188.623 94.3496 188.054 93.8545 187.638 93.1982C187.228 92.542 187.023 91.7275 187.023 90.7549V82.2031H189.22V90.7549C189.22 91.3701 189.326 91.877 189.537 92.2754C189.748 92.668 190.046 92.958 190.433 93.1455C190.82 93.333 191.277 93.4268 191.804 93.4268C192.332 93.4268 192.786 93.333 193.167 93.1455C193.553 92.958 193.852 92.668 194.063 92.2754C194.274 91.877 194.379 91.3701 194.379 90.7549V82.2031ZM202.936 82.2031H207.462C208.435 82.2031 209.264 82.3496 209.95 82.6426C210.635 82.9355 211.16 83.3691 211.523 83.9434C211.892 84.5117 212.077 85.2148 212.077 86.0527C212.077 86.6914 211.96 87.2539 211.725 87.7402C211.491 88.2266 211.16 88.6367 210.732 88.9707C210.304 89.2988 209.794 89.5537 209.203 89.7354L208.535 90.0605H204.465L204.448 88.3115H207.498C208.025 88.3115 208.464 88.2178 208.816 88.0303C209.168 87.8428 209.431 87.5879 209.607 87.2656C209.789 86.9375 209.879 86.5684 209.879 86.1582C209.879 85.7129 209.792 85.3262 209.616 84.998C209.446 84.6641 209.182 84.4092 208.825 84.2334C208.467 84.0518 208.013 83.9609 207.462 83.9609H205.142V95H202.936V82.2031ZM210.24 95L207.234 89.252L209.545 89.2432L212.595 94.8857V95H210.24ZM229.884 92.126L232.433 82.2031H233.769L233.62 84.7607L230.895 95H229.506L229.884 92.126ZM227.977 82.2031L230.043 92.0469L230.227 95H228.751L225.789 82.2031H227.977ZM236.661 92.0205L238.7 82.2031H240.897L237.935 95H236.459L236.661 92.0205ZM234.288 82.2031L236.81 92.1523L237.179 95H235.791L233.11 84.7607L232.969 82.2031H234.288ZM251.089 83.9082L247.265 95H244.954L249.77 82.2031H251.247L251.089 83.9082ZM254.288 95L250.456 83.9082L250.289 82.2031H251.774L256.608 95H254.288ZM254.103 90.2539V92.0029H247.142V90.2539H254.103ZM262.22 82.2031L265.191 88.3115L268.162 82.2031H270.605L266.299 90.2891V95H264.075V90.2891L259.768 82.2031H262.22Z" fill="black"/>
<defs>
<linearGradient id="paint0_linear_970_4" x1="0" y1="45.5" x2="272" y2="45.5" gradientUnits="userSpaceOnUse">
<stop stop-color="#2FF3E0"/>
<stop offset="1" stop-color="#F8D210"/>
</linearGradient>
</defs>
</svg>
